<svg width="802" height="572" viewBox="0 0 802 572" fill="none" xmlns="http://www.w3.org/2000/svg">
  <g clip-path="url(#clip0_81_2)">
    <path
      d="M1.58003 288.94L66.1201 571.11H771.3L801.12 337.8C801.75 332.76 801.4 327.58 800.07 322.68L738.05 98.4001C733.99 83.7001 721.6 72.7801 706.55 70.5401L234.33 1.24004C220.68 -0.789958 207.03 4.67005 198.49 15.5201L8.86004 256.53C1.65004 265.7 -1.00997 277.6 1.58003 288.94Z"
      fill="#F4F4F4" />
    <path d="M563.47 110.16V313.44L796.5 309.94L741.34 110.16H563.47Z" fill="#EAEAEA" />
    <path
      d="M486.19 375.18H246.44C242.03 375.18 238.46 371.61 238.46 367.2V227.76H486.19C490.6 227.76 494.17 231.33 494.17 235.74V367.2C494.17 371.61 490.6 375.18 486.19 375.18Z"
      fill="#B2B6BB" />
    <path
      d="M245.46 375.18H208.92C204.51 375.18 200.94 371.61 200.94 367.2V235.67C200.94 231.26 204.51 227.69 208.92 227.69H245.46C249.87 227.69 253.44 231.26 253.44 235.67V367.2C253.44 371.61 249.87 375.18 245.46 375.18Z"
      fill="#868A91" />
    <path
      d="M489.34 570.76H607.22V347.81C607.22 343.4 603.65 339.83 599.24 339.83H497.32C492.91 339.83 489.34 343.4 489.34 347.81V570.76Z"
      fill="#868A91" />
    <path
      d="M580.9 570.76H633.4V347.81C633.4 343.4 629.83 339.83 625.42 339.83H588.88C584.47 339.83 580.9 343.4 580.9 347.81V570.76Z"
      fill="#B2B6BB" />
    <path d="M581.341 469.209V416.709H316.114V469.209H581.341Z" fill="#B2B6BB" />
    <path opacity="0.2" d="M328.668 469.184V416.684H321.248V469.184H328.668Z" fill="black" />
    <path
      d="M611.98 536.46L614.5 540.38C617.79 545.56 622.83 549.48 628.64 551.37L660.49 562.64C663.36 563.55 663.01 567.75 660 567.75H656.01C655.52 568.45 654.68 568.87 653.77 568.87C652.93 568.87 651.95 568.45 651.32 567.89C651.25 567.82 651.18 567.82 651.11 567.75H650.55C650.48 567.82 650.34 567.82 650.27 567.96C649.78 568.52 649.01 568.94 648.17 568.94C647.4 568.94 646.49 568.59 645.86 568.1C645.58 567.82 645.09 567.89 644.88 568.17C644.46 568.66 643.9 568.94 643.2 568.94C642.57 568.94 641.8 568.66 641.24 568.24C640.96 568.03 640.54 568.1 640.33 568.31C639.91 568.66 639.42 568.94 638.79 568.94C637.95 568.94 637.25 568.45 636.9 567.82H636.62L597.21 567.19C593.43 567.12 590.63 565.93 589.02 562.99L580.9 548.43L611.98 536.46Z"
      fill="#FC9D9D" />
    <path opacity="0.15"
      d="M580.9 548.36L611.84 536.39L593.57 548.57C592.45 549.34 592.1 550.81 592.73 551.93L597.07 559.91C598.54 562.5 600.92 563.76 604.14 564.04C604.84 564.11 605.54 564.04 606.17 563.9C610.51 562.92 614.99 562.5 619.47 562.71C626.26 558.02 630.53 552 630.53 552L636.34 553.47L643.2 566.28L636.48 566.35L640.96 567.96C640.75 567.89 640.47 567.96 640.26 568.17C639.84 568.52 639.35 568.8 638.72 568.8C637.88 568.8 637.18 568.31 636.83 567.68H636.55L597.14 567.05C593.36 566.98 590.56 565.79 588.95 562.85L580.9 548.36Z"
      fill="black" />
    <path
      d="M438.94 364.33L424.94 267.87C423.47 257.93 416.12 249.88 406.39 247.57L368.94 238.68L331.21 239.03L296.35 247.36C283.96 250.3 275.91 262.27 277.8 274.87L281.86 301.61L288.72 316.45C289.07 317.29 289.28 318.13 289.49 318.97L295.86 353.76C296.98 359.92 302.37 364.33 308.6 364.33H438.94Z"
      fill="#4D61FC" />
    <path
      d="M417.24 267.24C416.75 267.24 416.26 266.89 416.19 266.33L415.7 262.97C415.63 262.41 415.98 261.85 416.61 261.78C417.17 261.71 417.73 262.06 417.8 262.69L418.29 266.05C418.36 266.61 418.01 267.17 417.38 267.24C417.38 267.24 417.31 267.24 417.24 267.24Z"
      fill="white" />
    <path
      d="M376.71 305.6C376.15 305.6 375.73 305.18 375.66 304.62L375.31 301.19C375.24 300.63 375.66 300.07 376.29 300.07C376.85 300 377.41 300.42 377.41 301.05L377.76 304.48C377.83 305.04 377.41 305.6 376.78 305.6H376.71Z"
      fill="white" />
    <path
      d="M320.22 266.26C319.66 266.26 319.24 265.84 319.17 265.28L318.82 261.85C318.75 261.29 319.17 260.73 319.8 260.73C320.36 260.66 320.92 261.08 320.92 261.71L321.27 265.14C321.34 265.7 320.92 266.26 320.29 266.26C320.29 266.19 320.22 266.26 320.22 266.26Z"
      fill="white" />
    <path
      d="M289.35 259.26C288.93 258.98 288.79 258.35 289 257.86L290.68 254.85C290.96 254.36 291.59 254.15 292.08 254.43C292.57 254.71 292.78 255.34 292.5 255.83L290.82 258.84C290.54 259.33 289.91 259.54 289.42 259.26C289.35 259.33 289.35 259.33 289.35 259.26Z"
      fill="white" />
    <path
      d="M343.95 313.3C343.74 313.3 343.46 313.23 343.32 313.09C342.9 312.74 342.83 312.04 343.18 311.62L345.35 308.96C345.7 308.54 346.4 308.47 346.82 308.82C347.24 309.17 347.31 309.87 346.96 310.29L344.79 312.95C344.51 313.16 344.23 313.3 343.95 313.3Z"
      fill="white" />
    <path
      d="M392.67 252.33C392.46 252.33 392.18 252.26 391.97 252.05C391.55 251.7 391.48 251 391.83 250.58L393.86 248.13C394.21 247.71 394.91 247.64 395.33 247.99C395.75 248.34 395.82 249.04 395.47 249.46L393.44 251.91C393.23 252.19 392.95 252.33 392.67 252.33Z"
      fill="white" />
    <path
      d="M344.37 281.94C344.02 281.94 343.67 281.73 343.46 281.45L341.78 278.72C341.5 278.23 341.64 277.6 342.13 277.25C342.62 276.97 343.25 277.11 343.6 277.6L345.28 280.33C345.56 280.82 345.42 281.45 344.93 281.8C344.72 281.87 344.51 281.94 344.37 281.94Z"
      fill="white" />
    <path
      d="M306.29 287.4C306.22 287.4 306.15 287.4 306.08 287.4L303 286.63C302.44 286.49 302.09 285.93 302.23 285.37C302.37 284.81 302.93 284.46 303.49 284.6L306.57 285.37C307.13 285.51 307.48 286.07 307.34 286.63C307.2 287.12 306.71 287.4 306.29 287.4Z"
      fill="white" />
    <path
      d="M399.25 324.22C399.04 324.22 398.76 324.15 398.55 323.94C398.13 323.59 398.06 322.89 398.41 322.47L400.44 320.02C400.79 319.6 401.49 319.53 401.91 319.88C402.33 320.23 402.4 320.93 402.05 321.35L400.02 323.8C399.88 324.15 399.53 324.22 399.25 324.22Z"
      fill="white" />
    <path
      d="M392.67 283.48C392.6 283.48 392.46 283.48 392.39 283.41L388.96 282.36C388.4 282.22 388.12 281.59 388.26 281.03C388.4 280.47 389.03 280.19 389.59 280.33L393.02 281.38C393.58 281.52 393.86 282.15 393.72 282.71C393.58 283.2 393.16 283.48 392.67 283.48Z"
      fill="white" />
    <path
      d="M419.13 308.4C419.06 308.33 418.99 308.26 418.92 308.19L416.89 305.18C416.54 304.69 416.68 304.06 417.17 303.71C417.66 303.36 418.29 303.5 418.64 303.99L420.67 307C421.02 307.49 420.88 308.12 420.39 308.47C419.97 308.75 419.48 308.68 419.13 308.4Z"
      fill="white" />
    <path
      d="M580.48 476.89C580.27 476.89 580.06 476.75 580.06 476.54V382.53C580.06 382.32 580.27 382.18 580.48 382.18C580.69 382.18 580.9 382.32 580.9 382.53V476.54C580.9 476.75 580.69 476.89 580.48 476.89Z"
      fill="#868A91" />
    <path
      d="M370.2 264.51C370.13 264.51 369.99 264.51 369.92 264.44L366.49 263.39C365.93 263.25 365.65 262.62 365.79 262.06C365.93 261.5 366.56 261.22 367.12 261.36L370.55 262.41C371.11 262.55 371.39 263.18 371.25 263.74C371.04 264.23 370.62 264.51 370.2 264.51Z"
      fill="white" />
    <path
      d="M367.26 334.16C367.19 334.16 367.05 334.16 366.98 334.09L363.55 333.04C362.99 332.9 362.71 332.27 362.85 331.71C362.99 331.15 363.62 330.87 364.18 331.01L367.61 332.06C368.17 332.2 368.45 332.83 368.31 333.39C368.1 333.88 367.68 334.16 367.26 334.16Z"
      fill="white" />
    <path opacity="0.2"
      d="M322.39 331.71L316.86 277.32C316.79 276.62 317.77 276.41 317.98 277.11L335.2 333.6L322.39 331.71Z"
      fill="black" />
    <path opacity="0.2" d="M400.02 353.55L400.09 353.48L400.23 353.62L400.02 353.55Z" fill="black" />
    <path
      d="M425.22 356.84C424.52 357.68 423.26 357.89 422.35 357.19L409.96 348.09L425.71 355.3C425.78 355.86 425.57 356.42 425.22 356.84Z"
      fill="#868A91" />
    <path
      d="M611.91 536.46L580.9 548.43L506.42 416.69H376.43V364.33H525.81C535.05 364.33 543.38 369.93 546.88 378.47L611.91 536.46Z"
      fill="#3F4249" />
    <path opacity="0.2"
      d="M595.88 542.62L580.9 548.43L506.42 416.69H376.43V364.33H500.05C509.29 364.33 517.62 369.93 521.12 378.47L595.88 542.62Z"
      fill="black" />
    <path
      d="M533.65 536.46L502.57 548.43L428.16 416.69H298.17V364.33H447.55C456.79 364.33 465.12 369.93 468.62 378.47L533.65 536.46Z"
      fill="#3F4249" />
    <path opacity="0.2"
      d="M448.25 405.56C443 395.34 437.19 392.33 425.71 392.33H336.46L339.47 364.33H321.2V416.69H328.62H428.09L502.57 548.43L516.5 543.04L448.25 405.56Z"
      fill="black" />
    <path
      d="M533.65 536.46L536.17 540.38C539.46 545.56 544.5 549.48 550.31 551.37L582.16 562.64C585.03 563.55 584.68 567.75 581.67 567.75H577.68C577.19 568.45 576.35 568.87 575.44 568.87C574.6 568.87 573.62 568.45 572.99 567.89C572.92 567.82 572.85 567.82 572.78 567.75H572.22C572.15 567.82 572.01 567.82 571.94 567.96C571.45 568.52 570.68 568.94 569.84 568.94C569.07 568.94 568.16 568.59 567.53 568.1C567.25 567.82 566.76 567.89 566.55 568.17C566.13 568.66 565.57 568.94 564.87 568.94C564.24 568.94 563.47 568.66 562.91 568.24C562.63 568.03 562.21 568.1 562 568.31C561.58 568.66 561.09 568.94 560.46 568.94C559.62 568.94 558.92 568.45 558.57 567.82H558.29L518.88 567.19C515.1 567.12 512.3 565.93 510.69 562.99L502.57 548.43L533.65 536.46Z"
      fill="#FC9D9D" />
    <path opacity="0.15"
      d="M512.72 544.51L533.65 536.46L516.64 551.58L520 557.6C521.61 560.54 524.41 561.73 528.19 561.8L567.6 562.43H567.88C568.23 563.13 569 563.55 569.77 563.55C570.33 563.55 570.89 563.34 571.31 562.92C571.59 562.71 571.94 562.64 572.22 562.85C572.78 563.27 573.55 563.55 574.18 563.55C574.88 563.55 575.44 563.27 575.86 562.78C576.14 562.5 576.56 562.5 576.84 562.71C577.47 563.27 578.38 563.55 579.15 563.55C579.99 563.55 580.76 563.2 581.25 562.57C581.32 562.5 581.39 562.43 581.53 562.36H581.6L582.23 562.57C582.44 562.64 582.58 562.71 582.72 562.78C582.79 562.85 582.93 562.92 583 562.99C584.96 564.39 584.4 567.75 581.74 567.75H577.75C577.26 568.45 576.42 568.87 575.51 568.87C574.67 568.87 573.69 568.45 573.06 567.89C572.99 567.82 572.92 567.82 572.85 567.75H572.29C572.22 567.82 572.08 567.82 572.01 567.96C571.52 568.52 570.75 568.94 569.91 568.94C569.14 568.94 568.23 568.59 567.6 568.1C567.32 567.82 566.83 567.89 566.62 568.17C566.2 568.66 565.64 568.94 564.94 568.94C564.31 568.94 563.54 568.66 562.98 568.24C562.7 568.03 562.28 568.1 562.07 568.31C561.65 568.66 561.16 568.94 560.53 568.94C559.69 568.94 558.99 568.45 558.64 567.82H558.36L518.95 567.19C515.17 567.12 512.37 565.93 510.76 562.99L502.64 548.43L512.72 544.51Z"
      fill="black" />
    <path opacity="0.15"
      d="M552.27 552.07C552.27 552.07 546.11 562.92 534.56 566.84H546.25L552.27 552.07Z"
      fill="black" />
    <path
      d="M174.97 570.76H284.87C289.28 570.76 292.85 567.19 292.85 562.78V347.81C292.85 343.4 289.28 339.83 284.87 339.83H182.95C178.54 339.83 174.97 343.4 174.97 347.81V570.76Z"
      fill="#868A91" />
    <path opacity="0.4" d="M116.52 224.47H107.91V258.21V566.28H110.36V227.9H116.52V224.47Z"
      fill="black" />
    <path
      d="M95.03 224.47H129.33C132.48 224.47 135.07 221.88 135.07 218.73V200.88H89.36V218.73C89.36 221.88 91.88 224.47 95.03 224.47Z"
      fill="#61656D" />
    <path d="M107.877 566.238H116.487V224.427H107.877V566.238Z" fill="#61656D" />
    <path d="M116.52 224.47H107.91V558.3H110.29V227.69H116.52V224.47Z" fill="#21252B" />
    <path
      d="M95.1 218.73V214.18H89.36V218.73C89.36 221.88 91.95 224.47 95.1 224.47H100.84C97.62 224.47 95.1 221.88 95.1 218.73Z"
      fill="#21252B" />
    <path
      d="M66.12 570.41C64.51 570.41 63.95 568.17 65.42 567.47C78.9999 560.89 95.0299 557.04 112.18 557.04C129.33 557.04 145.36 560.82 158.94 567.47C160.41 568.17 159.92 570.41 158.24 570.41H66.12Z"
      fill="#61656D" />
    <path
      d="M117.5 557.18C115.75 557.11 114 557.04 112.25 557.04C95.0999 557.04 79.07 560.82 65.49 567.47C64.02 568.17 64.51 570.41 66.19 570.41H81.7999C85.9299 564.81 101.19 558.23 117.5 557.18Z"
      fill="#21252B" />
    <path
      d="M791.95 571.11H34.4099C34.1999 571.11 34.0599 570.97 34.0599 570.76C34.0599 570.55 34.1999 570.41 34.4099 570.41H791.95C792.16 570.41 792.3 570.55 792.3 570.76C792.3 570.97 792.16 571.11 791.95 571.11Z"
      fill="#B2B6BB" />
    <path
      d="M148.51 333.95C148.3 333.95 148.16 333.81 148.16 333.6V214.6C148.16 214.39 148.3 214.25 148.51 214.25C148.72 214.25 148.86 214.39 148.86 214.6V333.6C148.86 333.81 148.65 333.95 148.51 333.95Z"
      fill="#21252B" />
    <path
      d="M282.91 340.74H204.23C204.02 340.74 203.88 340.53 203.88 340.25C203.88 339.97 204.02 339.76 204.23 339.76H282.98C283.19 339.76 283.33 339.97 283.33 340.25C283.33 340.53 283.12 340.74 282.91 340.74Z"
      fill="#B2B6BB" />
    <path opacity="0.2" d="M620.94 114.57L697.1 309.03H721.11L643.62 114.57H620.94Z" fill="white" />
    <path opacity="0.2" d="M654.4 114.57L730.63 309.03H738.61L661.12 114.57H654.4Z" fill="white" />
    <path
      d="M796.22 309.03H685.48V114.57H742.53L740.08 105.75H558.99V317.85H798.6L796.22 309.03ZM567.88 114.57H676.66V309.03H567.88V114.57Z"
      fill="white" />
    <path
      d="M255.82 339.9H237.76C234.96 339.9 232.72 337.66 232.72 334.86V305.18H260.93V334.86C260.86 337.66 258.62 339.9 255.82 339.9Z"
      fill="#21252B" />
    <path
      d="M265.27 329.75H260.86V327.58H265.27C266.39 327.58 267.3 326.67 267.3 325.55V313.44C267.3 312.32 266.39 311.41 265.27 311.41H260.86V309.24H265.27C267.58 309.24 269.4 311.13 269.4 313.37V325.48C269.47 327.86 267.58 329.75 265.27 329.75Z"
      fill="#21252B" />
    <path opacity="0.6"
      d="M262.82 311.41V309.24H260.86V305.11H254.7V334.3C254.7 336.82 252.67 338.85 250.15 338.85H234.54C235.38 339.55 236.5 339.97 237.69 339.97H255.75C258.55 339.97 260.79 337.73 260.79 334.93V329.82H262.75V327.65H260.79V311.48H262.82V311.41Z"
      fill="black" />
    <path
      d="M242.31 303.01C242.1 303.01 241.96 302.87 241.96 302.66C241.96 300 239.79 297.76 237.06 297.76H234.68C232.58 297.76 230.9 296.08 230.9 293.98C230.9 291.88 232.58 290.2 234.68 290.2H248.12C249.8 290.2 251.2 288.8 251.2 287.12C251.2 285.44 249.8 284.04 248.12 284.04H244.9C242.73 284.04 241.05 282.29 241.05 280.19C241.05 279.98 241.19 279.84 241.4 279.84C241.61 279.84 241.75 279.98 241.75 280.19C241.75 281.94 243.15 283.34 244.9 283.34H248.12C250.22 283.34 251.9 285.02 251.9 287.12C251.9 289.22 250.22 290.9 248.12 290.9H234.68C233 290.9 231.6 292.3 231.6 293.98C231.6 295.66 233 297.06 234.68 297.06H237.06C240.14 297.06 242.66 299.58 242.66 302.66C242.66 302.87 242.52 303.01 242.31 303.01Z"
      fill="white" />
    <path
      d="M250.08 305.18C249.87 305.18 249.73 305.04 249.73 304.83V303.99C249.73 303.36 249.24 302.87 248.61 302.87C247.56 302.87 246.79 302.03 246.79 301.05V299.58C246.79 298.53 247.63 297.76 248.61 297.76H250.85C253.86 297.76 256.38 295.31 256.38 292.23V289.5C256.38 289.29 256.52 289.15 256.73 289.15C256.94 289.15 257.08 289.29 257.08 289.5V292.16C257.08 295.59 254.28 298.39 250.85 298.39H248.61C247.98 298.39 247.49 298.88 247.49 299.51V300.98C247.49 301.61 247.98 302.1 248.61 302.1C249.66 302.1 250.43 302.94 250.43 303.92V304.76C250.43 304.97 250.29 305.18 250.08 305.18Z"
      fill="white" />
    <path opacity="0.6"
      d="M363.13 316.94C363.903 316.94 364.53 316.314 364.53 315.54C364.53 314.767 363.903 314.14 363.13 314.14C362.356 314.14 361.73 314.767 361.73 315.54C361.73 316.314 362.356 316.94 363.13 316.94Z"
      fill="black" />
    <path opacity="0.6"
      d="M421.51 291.81C422.283 291.81 422.91 291.183 422.91 290.41C422.91 289.637 422.283 289.01 421.51 289.01C420.737 289.01 420.11 289.637 420.11 290.41C420.11 291.183 420.737 291.81 421.51 291.81Z"
      fill="black" />
    <path opacity="0.6"
      d="M394.49 265C395.264 265 395.89 264.373 395.89 263.6C395.89 262.826 395.264 262.2 394.49 262.2C393.717 262.2 393.09 262.826 393.09 263.6C393.09 264.373 393.717 265 394.49 265Z"
      fill="black" />
    <path opacity="0.6"
      d="M364.95 284.18C365.724 284.18 366.35 283.554 366.35 282.78C366.35 282.007 365.724 281.38 364.95 281.38C364.177 281.38 363.55 282.007 363.55 282.78C363.55 283.554 364.177 284.18 364.95 284.18Z"
      fill="black" />
    <path opacity="0.6"
      d="M400.3 335C401.074 335 401.7 334.373 401.7 333.6C401.7 332.826 401.074 332.2 400.3 332.2C399.527 332.2 398.9 332.826 398.9 333.6C398.9 334.373 399.527 335 400.3 335Z"
      fill="black" />
    <path opacity="0.6"
      d="M395.12 303.85C395.893 303.85 396.52 303.224 396.52 302.45C396.52 301.677 395.893 301.05 395.12 301.05C394.347 301.05 393.72 301.677 393.72 302.45C393.72 303.224 394.347 303.85 395.12 303.85Z"
      fill="black" />
    <path opacity="0.6"
      d="M340.24 256.95C341.013 256.95 341.64 256.324 341.64 255.55C341.64 254.777 341.013 254.15 340.24 254.15C339.467 254.15 338.84 254.777 338.84 255.55C338.84 256.324 339.467 256.95 340.24 256.95Z"
      fill="black" />
    <path opacity="0.6"
      d="M306.92 252.82C307.694 252.82 308.32 252.193 308.32 251.42C308.32 250.647 307.694 250.02 306.92 250.02C306.147 250.02 305.52 250.647 305.52 251.42C305.52 252.193 306.147 252.82 306.92 252.82Z"
      fill="black" />
    <path opacity="0.6"
      d="M332.54 292.58C333.314 292.58 333.94 291.954 333.94 291.18C333.94 290.407 333.314 289.78 332.54 289.78C331.767 289.78 331.14 290.407 331.14 291.18C331.14 291.954 331.767 292.58 332.54 292.58Z"
      fill="black" />
    <path opacity="0.6"
      d="M333.94 329.89C334.714 329.89 335.34 329.263 335.34 328.49C335.34 327.717 334.714 327.09 333.94 327.09C333.167 327.09 332.54 327.717 332.54 328.49C332.54 329.263 333.167 329.89 333.94 329.89Z"
      fill="black" />
    <path opacity="0.6"
      d="M287.81 277.81C288.583 277.81 289.21 277.184 289.21 276.41C289.21 275.637 288.583 275.01 287.81 275.01C287.037 275.01 286.41 275.637 286.41 276.41C286.41 277.184 287.037 277.81 287.81 277.81Z"
      fill="black" />
    <path
      d="M661.89 570.76H589.65C588.6 570.76 587.69 569.92 587.69 568.8C587.69 567.75 588.53 566.84 589.65 566.84H663.78V568.8C663.78 569.85 662.94 570.76 661.89 570.76Z"
      fill="#4D61FC" />
    <path
      d="M663.78 566.84C663.64 562.71 660.98 559.14 657.06 557.74L633.12 549.41C632.07 549.06 631.02 549.62 630.74 550.67C629.69 554.17 627.1 561.66 621.99 566.84H589.65C588.6 566.84 587.69 567.68 587.69 568.8C587.69 569.92 588.53 570.76 589.65 570.76H661.89C662.94 570.76 663.78 569.92 663.78 568.87V566.84Z"
      fill="#4D61FC" />
    <path
      d="M663.78 566.84C663.64 562.71 660.98 559.14 657.06 557.74L633.12 549.41C632.07 549.06 631.02 549.62 630.74 550.67C629.69 554.17 627.1 561.66 621.99 566.84H589.65C588.6 566.84 587.69 567.68 587.69 568.8C587.69 569.92 588.53 570.76 589.65 570.76H661.89C662.94 570.76 663.78 569.92 663.78 568.87V566.84Z"
      fill="#21252B" />
    <path opacity="0.4"
      d="M663.78 566.84C663.64 563.55 661.96 560.61 659.3 558.86C662.73 561.31 662.1 563.76 657.2 563.55C631.93 562.36 628.64 562.36 625.7 562.08C625.77 562.01 625.77 561.94 625.77 561.87C624.65 563.62 623.39 565.37 621.92 566.84H589.58C588.53 566.84 587.62 567.68 587.62 568.8C587.62 569.92 588.46 570.76 589.58 570.76H661.82C662.87 570.76 663.71 569.92 663.71 568.87V566.84H663.78Z"
      fill="black" />
    <path opacity="0.4" d="M663.71 566.21H622.55L621.92 566.84H663.71V566.21Z" fill="black" />
    <path
      d="M583.84 570.76H511.6C510.55 570.76 509.64 569.92 509.64 568.8C509.64 567.75 510.48 566.84 511.6 566.84H585.73V568.8C585.73 569.85 584.89 570.76 583.84 570.76Z"
      fill="#4D61FC" />
    <path
      d="M585.73 566.84C585.59 562.71 582.93 559.14 579.01 557.74L555.07 549.41C554.02 549.06 552.97 549.62 552.69 550.67C551.64 554.17 549.05 561.66 543.94 566.84H511.6C510.55 566.84 509.64 567.68 509.64 568.8C509.64 569.92 510.48 570.76 511.6 570.76H583.84C584.89 570.76 585.73 569.92 585.73 568.87V566.84Z"
      fill="#4D61FC" />
    <path
      d="M585.73 566.84C585.59 562.71 582.93 559.14 579.01 557.74L555.07 549.41C554.02 549.06 552.97 549.62 552.69 550.67C551.64 554.17 549.05 561.66 543.94 566.84H511.6C510.55 566.84 509.64 567.68 509.64 568.8C509.64 569.92 510.48 570.76 511.6 570.76H583.84C584.89 570.76 585.73 569.92 585.73 568.87V566.84Z"
      fill="#21252B" />
    <path opacity="0.4"
      d="M585.73 566.84C585.59 563.55 583.91 560.61 581.25 558.86C584.68 561.31 584.05 563.76 579.15 563.55C553.88 562.36 550.59 562.36 547.65 562.08C547.72 562.01 547.72 561.94 547.72 561.87C546.6 563.62 545.34 565.37 543.87 566.84H511.6C510.55 566.84 509.64 567.68 509.64 568.8C509.64 569.92 510.48 570.76 511.6 570.76H583.84C584.89 570.76 585.73 569.92 585.73 568.87V566.84Z"
      fill="black" />
    <path opacity="0.4" d="M585.73 566.21H544.5L543.94 566.84H585.73V566.21Z" fill="black" />
    <path
      d="M745.12 473.53L712.99 508.39L713.2 444.27H712.36L712.29 475.35L685.13 447.7L684.57 448.26L712.29 476.54L712.08 534.64H712.92L712.99 509.58L745.68 474.09L745.12 473.53Z"
      fill="#21252B" />
    <path
      d="M688.28 508.32L687.72 508.88L701.86 522.18L704.1 534.71L704.87 534.57L695.98 484.45L695.14 484.59L701.65 520.85L688.28 508.32Z"
      fill="#21252B" />
    <path
      d="M698.71 570.76H718.66C722.37 570.76 725.45 567.75 725.45 563.97V537.58H691.92V563.97C691.92 567.68 694.93 570.76 698.71 570.76Z"
      fill="#61656D" />
    <path
      d="M712.78 444.34C724.302 444.34 733.64 435.001 733.64 423.48C733.64 411.959 724.302 402.62 712.78 402.62C701.258 402.62 691.92 411.959 691.92 423.48C691.92 435.001 701.258 444.34 712.78 444.34Z"
      fill="#4D61FC" />
    <path
      d="M694.09 486.55C702.322 486.55 709 479.875 709 471.64C709 463.406 702.322 456.73 694.09 456.73C685.858 456.73 679.18 463.406 679.18 471.64C679.18 479.875 685.858 486.55 694.09 486.55Z"
      fill="#4D61FC" />
    <g opacity="0.3">
      <path opacity="0.3"
        d="M694.09 486.55C702.322 486.55 709 479.875 709 471.64C709 463.406 702.322 456.73 694.09 456.73C685.858 456.73 679.18 463.406 679.18 471.64C679.18 479.875 685.858 486.55 694.09 486.55Z"
        fill="white" />
    </g>
    <g opacity="0.3">
      <path opacity="0.3"
        d="M712.78 444.34C724.302 444.34 733.64 435.001 733.64 423.48C733.64 411.959 724.302 402.62 712.78 402.62C701.258 402.62 691.92 411.959 691.92 423.48C691.92 435.001 701.258 444.34 712.78 444.34Z"
        fill="white" />
    </g>
    <path
      d="M680.79 452.81C685.697 452.81 689.68 448.83 689.68 443.92C689.68 439.01 685.697 435.03 680.79 435.03C675.883 435.03 671.9 439.01 671.9 443.92C671.9 448.83 675.883 452.81 680.79 452.81Z"
      fill="#4D61FC" />
    <path
      d="M680.58 512.24C686.418 512.24 691.15 507.507 691.15 501.67C691.15 495.832 686.418 491.1 680.58 491.1C674.742 491.1 670.01 495.832 670.01 501.67C670.01 507.507 674.742 512.24 680.58 512.24Z"
      fill="#4D61FC" />
    <path
      d="M737.14 496.42C744.602 496.42 750.65 490.371 750.65 482.91C750.65 475.449 744.602 469.4 737.14 469.4C729.678 469.4 723.63 475.449 723.63 482.91C723.63 490.371 729.678 496.42 737.14 496.42Z"
      fill="#4D61FC" />
    <path
      d="M726.15 534.01H691.22C690.24 534.01 689.47 534.78 689.47 535.76C689.47 536.74 690.24 537.51 691.22 537.51H726.15C727.13 537.51 727.9 536.74 727.9 535.76C727.9 534.78 727.13 534.01 726.15 534.01Z"
      fill="#61656D" />
    <path
      d="M691.92 423.48C691.92 411.93 701.3 402.62 712.78 402.62V444.41C701.23 444.34 691.92 435.03 691.92 423.48Z"
      fill="#4D61FC" />
    <path
      d="M696.26 486.41C688.21 487.6 680.72 482.14 679.32 474.09C677.99 466.18 683.17 458.62 691.01 457.01L696.26 486.41Z"
      fill="#4D61FC" />
    <path opacity="0.3"
      d="M674.49 450.22C670.99 446.79 670.92 441.12 674.42 437.62C674.42 437.62 674.49 437.55 674.56 437.55L687.02 450.29C683.59 453.65 677.99 453.65 674.49 450.22Z"
      fill="black" />
    <path opacity="0.3"
      d="M688.07 509.09C683.94 513.29 677.22 513.29 673.09 509.16C668.96 505.1 668.89 498.45 672.88 494.32L688.28 508.81C688.28 508.95 688.21 509.02 688.07 509.09Z"
      fill="black" />
    <path
      d="M725.38 537.58H694.86C693.88 537.58 693.11 536.81 693.11 535.83C693.11 534.85 693.88 534.08 694.86 534.08H691.15C690.17 534.08 689.4 534.85 689.4 535.83C689.4 536.81 690.17 537.58 691.15 537.58H691.85V538.14V563.97C691.85 567.68 694.86 570.76 698.64 570.76H709.28C709.42 570.76 709.49 570.76 709.49 570.76C704.73 570.76 700.67 567.4 699.76 562.78L694.93 538.14H725.31V537.58H725.38Z"
      fill="#3F4249" />
    <path opacity="0.3"
      d="M746.31 472.97C746.24 472.9 746.17 472.9 746.17 472.83L727.97 492.78L728.04 492.85C733.5 497.89 742.11 497.54 747.15 492.08C752.12 486.55 751.77 478.01 746.31 472.97Z"
      fill="black" />
    <path d="M744.07 120.24H567.88V117.02H743.23L744.07 120.24Z" fill="white" />
    <path d="M745.68 125.91H567.88V122.69H744.77L745.68 125.91Z" fill="white" />
    <path d="M747.22 131.58H567.88V128.36H746.31L747.22 131.58Z" fill="white" />
    <path d="M748.83 137.25H567.88V134.03H747.92L748.83 137.25Z" fill="white" />
    <path d="M750.37 142.92H567.88V139.7H749.46L750.37 142.92Z" fill="white" />
    <path d="M751.91 148.59H567.88V145.3H751L751.91 148.59Z" fill="white" />
    <path
      d="M572.01 204.94H571.87V114.64H571.1V204.94H570.96C570.33 204.94 569.77 205.43 569.77 206.13V218.73C569.77 219.36 570.26 219.92 570.96 219.92H572.01C572.64 219.92 573.2 219.43 573.2 218.73V206.13C573.2 205.43 572.71 204.94 572.01 204.94Z"
      fill="white" />
    <path opacity="0.2"
      d="M403.31 277.04L409.96 342.63L415.77 348.37L421.09 344.87L409.47 281.87C408.28 276.69 403.31 276.27 403.31 277.04Z"
      fill="black" />
    <path opacity="0.2" d="M569.63 117.02H567.88V120.24H569.63V117.02Z" fill="black" />
    <path opacity="0.2" d="M569.63 122.69H567.88V125.91H569.63V122.69Z" fill="black" />
    <path opacity="0.2" d="M569.63 128.36H567.88V131.58H569.63V128.36Z" fill="black" />
    <path opacity="0.2" d="M569.63 134.03H567.88V137.25H569.63V134.03Z" fill="black" />
    <path opacity="0.2" d="M569.63 139.63H567.88V142.85H569.63V139.63Z" fill="black" />
    <path opacity="0.2" d="M569.63 145.3H567.88V148.52H569.63V145.3Z" fill="black" />
    <path opacity="0.2" d="M685.48 120.24H676.66V121.64H685.48V120.24Z" fill="black" />
    <path opacity="0.2" d="M685.48 125.91H676.66V127.31H685.48V125.91Z" fill="black" />
    <path opacity="0.2" d="M685.48 131.58H676.66V132.98H685.48V131.58Z" fill="black" />
    <path opacity="0.2" d="M685.48 137.25H676.66V138.65H685.48V137.25Z" fill="black" />
    <path opacity="0.2" d="M685.48 142.92H676.66V144.32H685.48V142.92Z" fill="black" />
    <path opacity="0.2" d="M685.48 148.59H676.66V149.99H685.48V148.59Z" fill="black" />
    <path d="M82.85 118.14H142.21L175.25 212.43H49.11L82.85 118.14Z" fill="#4D61FC" />
    <path d="M82.85 118.14H101.61L88.66 212.43H49.11L82.85 118.14Z" fill="#4D61FC" />
    <path d="M82.8073 118.162H142.237V113.892H82.8073V118.162Z" fill="#4D61FC" />
    <path d="M49.1471 216.652H175.287V212.382H49.1471V216.652Z" fill="#4D61FC" />
    <path opacity="0.4" d="M82.85 118.14H142.21L175.25 212.43H49.11L82.85 118.14Z" fill="white" />
    <path opacity="0.4" d="M97.5501 118.14H142.21L175.25 212.43H83.3401L97.5501 118.14Z"
      fill="white" />
    <path opacity="0.6"
      d="M331.14 239.03C331.14 239.03 330.44 241.9 332.68 243.3C335.2 244.77 344.93 251.28 358.65 247.15C358.65 247.15 362.99 245.96 367.12 242.95C368.03 242.25 368.73 241.27 368.87 240.08C368.87 239.94 368.87 239.87 368.87 239.73V238.75C368.87 238.75 368.87 238.75 372.72 239.66C372.72 240.85 372.37 243.09 370.41 245.05C369.29 246.17 352.7 258.98 331.56 247.15C331.56 247.15 326.94 245.33 327.43 239.94C331.14 239.03 331.14 239.03 331.14 239.03Z"
      fill="black" />
    <path
      d="M384.2 340.74L394.14 342.07L415.35 340.18C417.59 340.39 418.57 340.81 420.25 342.28L433.34 353.97C434.18 354.74 434.25 356 433.55 356.84C432.85 357.68 431.59 357.89 430.68 357.19L418.29 348.09L426.34 357.61C427.25 358.66 426.83 360.34 425.5 360.83C424.73 361.11 423.96 360.9 423.4 360.41L412.62 349.84L420.81 357.89C421.79 358.87 421.44 360.48 420.18 360.97C419.55 361.25 418.85 361.11 418.36 360.76L406.88 352.36L414.65 358.1C415.56 358.73 415.56 360.13 414.65 360.76C414.16 361.11 413.53 361.18 413.04 360.97L402.61 356.63C401.63 356.21 400.44 356.21 399.46 356.7L395.47 358.66C392.25 360.27 388.61 361.11 385.04 361.11H378.53C369.22 361.11 384.2 340.74 384.2 340.74Z"
      fill="#FC9D9D" />
    <path opacity="0.15"
      d="M322.46 332.83L318.96 332.55C317.91 332.48 317.35 331.36 317.77 330.45L321.48 322.96L322.46 332.83Z"
      fill="black" />
    <path opacity="0.15"
      d="M414.65 358.45C414.58 358.45 414.51 358.45 414.44 358.38L407.3 353.13C407.16 352.99 407.09 352.78 407.23 352.64C407.37 352.5 407.58 352.43 407.72 352.57L414.86 357.82C415 357.96 415.07 358.17 414.93 358.31C414.86 358.38 414.72 358.45 414.65 358.45Z"
      fill="black" />
    <path opacity="0.15"
      d="M420.74 358.24C420.67 358.24 420.53 358.24 420.53 358.17L412.83 350.61C412.69 350.47 412.69 350.26 412.83 350.12C412.97 349.98 413.18 349.98 413.32 350.12L421.02 357.68C421.16 357.82 421.16 358.03 421.02 358.17C420.95 358.24 420.81 358.24 420.74 358.24Z"
      fill="black" />
    <path opacity="0.15"
      d="M404.92 355.37C407.3 356.56 411.29 358.59 412.69 359.36C414.65 360.48 415.21 359.01 415.21 359.01C415.35 359.64 415.14 360.34 414.58 360.76C414.09 361.11 413.46 361.18 412.97 360.97L402.54 356.63C401.56 356.21 400.37 356.21 399.39 356.7L401.42 355.51C402.54 354.88 403.8 354.88 404.92 355.37Z"
      fill="black" />
    <path
      d="M382.59 341.58L322.46 332.76L318.54 294.68L281.02 296.57L288.65 345.22C290.12 354.39 297.96 361.11 307.2 361.11H375.59L382.59 341.58Z"
      fill="#4D61FC" />
    <path
      d="M390.78 341.58L322.46 332.83L318.54 294.75L281.02 296.64L288.65 345.29C290.12 354.46 297.96 361.18 307.2 361.18H383.99L390.78 341.58Z"
      fill="#4D61FC" />
    <path opacity="0.6"
      d="M303.49 305.25C304.263 305.25 304.89 304.623 304.89 303.85C304.89 303.076 304.263 302.45 303.49 302.45C302.717 302.45 302.09 303.076 302.09 303.85C302.09 304.623 302.717 305.25 303.49 305.25Z"
      fill="black" />
    <path opacity="0.6" d="M383.99 340.74L390.78 341.58L384.06 361.11H375.66L383.99 340.74Z"
      fill="black" />
    <g opacity="0.2">
      <path opacity="0.2"
        d="M384.69 340.25C384.62 340.53 384.41 340.67 384.2 340.67H384.13L322.39 331.71L322.25 330.59L384.27 339.62C384.55 339.69 384.76 339.97 384.69 340.25Z"
        fill="black" />
    </g>
    <path
      d="M316.72 315.12C316.16 315.12 315.74 314.7 315.67 314.14L315.32 310.71C315.25 310.15 315.67 309.59 316.3 309.59C316.86 309.52 317.42 309.94 317.42 310.57L317.77 314C317.84 314.56 317.42 315.12 316.79 315.12C316.79 315.12 316.79 315.12 316.72 315.12Z"
      fill="white" />
    <path
      d="M290.61 326.53C290.4 326.53 290.12 326.46 289.91 326.25C289.49 325.9 289.42 325.2 289.77 324.78L291.8 322.33C292.15 321.91 292.85 321.84 293.27 322.19C293.69 322.54 293.76 323.24 293.41 323.66L291.38 326.11C291.17 326.39 290.89 326.53 290.61 326.53Z"
      fill="white" />
    <path
      d="M321.76 349.7C321.69 349.7 321.55 349.7 321.48 349.63L318.05 348.58C317.49 348.44 317.21 347.81 317.35 347.25C317.49 346.69 318.12 346.41 318.68 346.55L322.11 347.6C322.67 347.74 322.95 348.37 322.81 348.93C322.67 349.42 322.25 349.7 321.76 349.7Z"
      fill="white" />
    <path
      d="M351.65 350.75C351.44 350.75 351.16 350.68 351.02 350.54C350.6 350.19 350.53 349.49 350.88 349.07L353.05 346.41C353.4 345.99 354.1 345.92 354.52 346.27C354.94 346.62 355.01 347.32 354.66 347.74L352.49 350.4C352.21 350.61 351.93 350.75 351.65 350.75Z"
      fill="white" />
    <path opacity="0.6"
      d="M337.72 342.98C338.493 342.98 339.12 342.354 339.12 341.58C339.12 340.807 338.493 340.18 337.72 340.18C336.947 340.18 336.32 340.807 336.32 341.58C336.32 342.354 336.947 342.98 337.72 342.98Z"
      fill="black" />
    <path opacity="0.6"
      d="M363.13 358.38C363.903 358.38 364.53 357.754 364.53 356.98C364.53 356.207 363.903 355.58 363.13 355.58C362.356 355.58 361.73 356.207 361.73 356.98C361.73 357.754 362.356 358.38 363.13 358.38Z"
      fill="black" />
    <path opacity="0.6"
      d="M307.97 331.29C308.743 331.29 309.37 330.663 309.37 329.89C309.37 329.117 308.743 328.49 307.97 328.49C307.197 328.49 306.57 329.117 306.57 329.89C306.57 330.663 307.197 331.29 307.97 331.29Z"
      fill="black" />
    <path opacity="0.15"
      d="M385.18 357.61L384.06 361.04H307.27C298.03 361.04 290.12 354.32 288.72 345.15L277.73 274.8C275.84 262.2 283.89 250.23 296.28 247.29L302.79 245.75C292.85 250.16 286.83 260.73 288.51 271.79L298.66 336.61C300.13 345.78 307.97 352.5 317.21 352.5L385.18 357.61Z"
      fill="black" />
    <path opacity="0.15"
      d="M391.97 357.68C390.36 357.68 389.1 356.21 389.24 354.6L390.78 341.58L383.99 361.11H384.97C388.61 361.11 392.18 360.27 395.4 358.66L400.16 356.42C399.04 356.56 396.1 357.68 391.97 357.68Z"
      fill="black" />
    <path
      d="M374.68 360.55H443.7C444.26 360.55 444.75 361.04 444.75 361.6V363.35C444.75 363.91 444.26 364.4 443.7 364.4H374.68C374.12 364.4 373.63 363.91 373.63 363.35V361.6C373.63 361.04 374.05 360.55 374.68 360.55Z"
      fill="#21252B" />
    <path opacity="0.6"
      d="M374.68 360.55H443.7C444.26 360.55 444.75 361.04 444.75 361.6V363.35C444.75 363.91 444.26 364.4 443.7 364.4H374.68C374.12 364.4 373.63 363.91 373.63 363.35V361.6C373.63 361.04 374.05 360.55 374.68 360.55Z"
      fill="black" />
    <path
      d="M421.23 360.55H541.56C542.12 360.55 542.61 361.04 542.61 361.6V363.35C542.61 363.91 542.12 364.4 541.56 364.4H421.23C420.67 364.4 420.18 363.91 420.18 363.35V361.6C420.25 361.04 420.67 360.55 421.23 360.55Z"
      fill="#21252B" />
    <g opacity="0.6">
      <path opacity="0.6"
        d="M540.02 361.25H417.52C417.31 361.25 417.17 361.11 417.17 360.9C417.17 360.69 417.31 360.55 417.52 360.55H540.02C540.23 360.55 540.37 360.69 540.37 360.9C540.37 361.11 540.16 361.25 540.02 361.25Z"
        fill="black" />
    </g>
    <path
      d="M420.95 360.55H439.08C440.48 360.55 441.67 359.57 441.95 358.17L457.14 278.3C457.49 276.48 456.09 274.87 454.27 274.87H436.14C434.74 274.87 433.55 275.85 433.27 277.25L418.08 357.12C417.8 358.94 419.13 360.55 420.95 360.55Z"
      fill="#21252B" />
    <path opacity="0.6"
      d="M420.95 360.55H439.08C440.48 360.55 441.67 359.57 441.95 358.17L457.14 278.3C457.49 276.48 456.09 274.87 454.27 274.87H436.14C434.74 274.87 433.55 275.85 433.27 277.25L418.08 357.12C417.8 358.94 419.13 360.55 420.95 360.55Z"
      fill="black" />
    <path
      d="M423.54 360.55H539.95C541.35 360.55 542.54 359.57 542.82 358.17L558.01 278.3C558.36 276.48 556.96 274.87 555.14 274.87H438.8C437.4 274.87 436.21 275.85 435.93 277.25L420.74 357.12C420.39 358.94 421.72 360.55 423.54 360.55Z"
      fill="#21252B" />
    <path opacity="0.6"
      d="M490.04 315.47C489.34 317.08 490.11 318.48 491.72 318.48C491.79 318.48 491.93 318.48 492 318.48C490.11 320.58 487.24 322.05 484.72 321.98C481.29 321.91 479.68 319.11 481.22 315.68C482.69 312.25 486.75 309.59 490.18 309.66C492.35 309.73 493.82 310.85 494.17 312.6C492.56 312.67 490.74 313.86 490.04 315.47Z"
      fill="black" />
    <path
      d="M372.02 197.38C372.02 197.38 339.96 173.86 336.81 199.48L335.9 206.2L331.14 239.031V239.1L331.07 239.8C330.93 240.78 331.21 241.691 331.77 242.391V242.46L331.84 242.531C332.05 242.811 332.33 243.09 332.68 243.3C335.27 244.91 336.95 245.75 339.05 246.52C348.57 250.16 359.56 248.76 367.96 242.32C368.59 241.55 368.94 240.57 368.87 239.52L368.31 222.44C368.87 220.69 369.22 218.73 369.43 216.56C370.48 206.48 372.02 197.38 372.02 197.38Z"
      fill="#FC9D9D" />
    <path
      d="M375.66 199.2C381.961 199.2 387.07 194.092 387.07 187.79C387.07 181.489 381.961 176.38 375.66 176.38C369.359 176.38 364.25 181.489 364.25 187.79C364.25 194.092 369.359 199.2 375.66 199.2Z"
      fill="#21252B" />
    <path
      d="M377.13 179.53C377.13 179.53 385.39 230.42 359.42 231.89C336.95 233.22 337.09 198.43 337.09 198.43L339.82 176.03L377.13 179.53Z"
      fill="#FC9D9D" />
    <path
      d="M375.45 182.54H352.63C349.76 182.54 347.45 184.85 347.45 187.72C347.45 190.59 345.14 192.9 342.27 192.9C341.5 192.9 340.87 193.53 340.87 194.3V199.34C340.87 199.97 340.38 200.53 339.68 200.53C339.12 200.53 338.63 200.11 338.56 199.55L337.86 194.72L336.95 193.04L331.35 195.98C331.35 195.98 323.65 181.98 328.69 170.15C331.56 163.36 338.63 161.47 341.85 161.26C342.9 161.19 343.88 160.63 344.51 159.79C345.98 157.62 349.48 153.98 356.62 154.82C362.08 155.45 364.95 158.6 366.28 161.19C367.12 162.66 368.94 163.36 370.55 162.8C372.93 161.96 376.36 161.54 380.07 164.2C387.35 169.24 383.43 181.91 375.45 182.54Z"
      fill="#21252B" />
    <path opacity="0.15"
      d="M335.62 207.88C335.62 207.88 337.72 208.23 338.91 207.39L334.92 212.71L335.62 207.88Z"
      fill="black" />
    <path
      d="M337.86 194.65C337.86 194.65 336.53 189.82 331.49 191.64C325.75 193.67 325.89 206.48 335.34 207.88C340.31 208.65 339.47 205.71 338.91 201.79C337.86 194.65 337.86 194.65 337.86 194.65Z"
      fill="#FC9D9D" />
    <path opacity="0.3"
      d="M331 194.86C331.98 194.3 332.96 194.09 333.8 194.37C334.64 194.65 335.34 195.28 335.83 196.26C336.32 197.31 336.6 198.5 336.53 199.76V200.88C336.53 201.23 336.25 201.44 335.9 201.44C335.55 201.44 335.34 201.16 335.34 200.81V199.69C335.41 199.41 335.27 197.73 334.78 196.75C334.43 196.05 333.94 195.56 333.45 195.42C332.96 195.28 332.33 195.42 331.56 195.84C331.28 195.98 330.93 195.91 330.79 195.63C330.65 195.42 330.72 195.07 331 194.86Z"
      fill="black" />
    <path
      d="M375.52 183.591L372.86 183.661C372.58 183.661 372.3 183.451 372.3 183.171C372.3 182.891 372.51 182.611 372.79 182.611L375.45 182.541C375.8 182.541 376.15 182.471 376.43 182.401C377.06 182.261 378.32 181.841 379.58 181.141C379.86 181.001 380.14 181.071 380.28 181.351C380.42 181.631 380.35 181.911 380.07 182.051C378.74 182.821 377.34 183.241 376.64 183.381C376.36 183.521 375.94 183.591 375.52 183.591Z"
      fill="#FC9D9D" />
    <path opacity="0.15"
      d="M368.87 236.65L368.59 228.53C366.28 230.63 359.84 233.36 353.05 231.19C348.85 229.79 346.12 227.2 344.51 224.96C344.37 224.75 344.02 224.68 343.81 224.82C343.6 224.96 343.53 225.31 343.67 225.52C345.7 228.25 349.27 231.54 355.01 232.73C361.8 238.05 368.87 236.65 368.87 236.65Z"
      fill="black" />
    <g opacity="0.3">
      <path opacity="0.3"
        d="M362.15 221.88H362.08C360.05 221.88 359 221.88 359 221.88C358.65 221.88 358.3 221.6 358.3 221.18C358.3 220.83 358.58 220.48 359 220.48C359 220.48 360.05 220.48 362.08 220.48C362.43 220.48 362.78 220.76 362.78 221.18C362.71 221.53 362.43 221.81 362.15 221.88Z"
        fill="black" />
    </g>
    <g opacity="0.3">
      <path opacity="0.3"
        d="M363.41 219.01C357.74 219.43 355.43 216.21 354.66 214.6C354.52 214.25 354.66 213.9 354.94 213.76C355.29 213.62 355.64 213.76 355.78 214.04C356.55 215.58 359.07 219.01 366 217.26C366.35 217.19 366.7 217.4 366.77 217.75C366.84 218.1 366.63 218.45 366.28 218.52C365.3 218.8 364.32 218.94 363.41 219.01Z"
        fill="black" />
    </g>
    <path
      d="M356.9 205.01C358.021 205.01 358.93 204.101 358.93 202.98C358.93 201.859 358.021 200.95 356.9 200.95C355.779 200.95 354.87 201.859 354.87 202.98C354.87 204.101 355.779 205.01 356.9 205.01Z"
      fill="#21252B" />
    <path
      d="M357.88 203.891C358.113 203.891 358.3 203.703 358.3 203.47C358.3 203.238 358.113 203.05 357.88 203.05C357.648 203.05 357.46 203.238 357.46 203.47C357.46 203.703 357.648 203.891 357.88 203.891Z"
      fill="white" />
    <path
      d="M373.14 206.27C374.261 206.27 375.17 205.361 375.17 204.24C375.17 203.119 374.261 202.21 373.14 202.21C372.018 202.21 371.11 203.119 371.11 204.24C371.11 205.361 372.018 206.27 373.14 206.27Z"
      fill="#21252B" />
    <path
      d="M374.12 205.081C374.352 205.081 374.54 204.893 374.54 204.66C374.54 204.428 374.352 204.24 374.12 204.24C373.888 204.24 373.7 204.428 373.7 204.66C373.7 204.893 373.888 205.081 374.12 205.081Z"
      fill="white" />
    <g opacity="0.3">
      <path opacity="0.3"
        d="M365.3 214.111H362.5C362.15 214.111 361.87 213.831 361.87 213.481C361.87 213.131 362.15 212.851 362.5 212.851H365.3C366 212.851 366.56 212.291 366.56 211.591C366.56 210.891 366 210.331 365.3 210.331C364.95 210.331 364.67 210.051 364.67 209.701C364.67 209.351 364.95 209.071 365.3 209.071C366.63 209.071 367.75 210.191 367.75 211.521C367.75 212.991 366.7 214.111 365.3 214.111Z"
        fill="black" />
    </g>
    <path
      d="M379.44 199.27L370.48 198.64L369.29 198.57L361.45 198.01H361.38L351.3 197.31C349.69 197.17 348.22 198.43 348.15 200.04L348.01 202.35C347.73 206.76 351.02 210.68 355.5 210.96C359.91 211.24 363.83 207.95 364.11 203.47L364.25 201.16C364.32 200.46 364.11 199.83 363.76 199.34L366.91 199.55C366.49 200.04 366.21 200.6 366.14 201.3L366 203.61C365.72 208.02 369.01 211.94 373.49 212.22C377.9 212.5 381.82 209.21 382.1 204.73L382.24 202.42C382.31 200.88 381.05 199.41 379.44 199.27ZM362.99 201.16L362.85 203.47C362.57 207.25 359.28 210.12 355.5 209.84C351.72 209.56 348.85 206.27 349.13 202.49L349.27 200.18C349.34 199.2 350.18 198.43 351.16 198.5L361.24 199.2H361.31C362.29 199.27 363.06 200.18 362.99 201.16ZM380.84 204.66C380.56 208.44 377.27 211.31 373.49 211.03C369.71 210.75 366.84 207.46 367.12 203.68L367.26 201.37C367.33 200.39 368.17 199.62 369.15 199.69L370.34 199.76L379.3 200.39C380.28 200.46 381.05 201.3 380.98 202.28L380.84 204.66Z"
      fill="#21252B" />
    <path
      d="M268.77 570.76H321.27V347.81C321.27 343.4 317.7 339.83 313.29 339.83H276.75C272.34 339.83 268.77 343.4 268.77 347.81V570.76Z"
      fill="#B2B6BB" />
  </g>
  <defs>
    <clipPath id="clip0_81_2">
      <rect width="802" height="572" fill="white" />
    </clipPath>
  </defs>
</svg>